# xmcd
#
# Track frame offsets:
#	150
#	16967
#	33865
#	48627
#	65192
#	81967
#	101022
#	118417
#	132470
#	151150
#	172785
#	190637
#	205340
#
# Disc length: 2961 seconds
#
# Revision: 33
# Processed by: cddbd v1.5.2PL0 Copyright (c) Steve Scherf et al.
# Submitted via: EasyCDDAExtractor 15.3.0.1
#
DISCID=b10b8f0d
DTITLE=Shakira - Laundry Service
DYEAR=2001
DGENRE=Pop
TTITLE0=Objection (Tango)
TTITLE1=Underneath Your Clothes
TTITLE2=Whenever, Wherever
TTITLE3=Rules
TTITLE4=The One
TTITLE5=Ready For The Good Times
TTITLE6=Fool
TTITLE7=Te Dejo Madrid
TTITLE8=Poem To A Horse
TTITLE9=Que Me Quedes Tu
TTITLE10=Eyes Like Yours (Ojos Asi)
TTITLE11=Suerte (Whenever, Wherever)
TTITLE12=Te Aviso, Te Anuncio (Tango)
EXTD=The one
EXTT0=
EXTT1=
EXTT2=
EXTT3=
EXTT4=
EXTT5=
EXTT6=
EXTT7=
EXTT8=
EXTT9=
EXTT10=
EXTT11=
EXTT12=
PLAYORDER=
